<svg xmlns="http://www.w3.org/2000/svg" width="18" height="17.667" viewBox="0 0 18 17.667">
  <g id="Grupo_3" data-name="Grupo 3" transform="translate(-2 -2)">
    <path id="Caminho_7" data-name="Caminho 7" d="M14.2,2A5.729,5.729,0,0,0,8.42,7.679a5.508,5.508,0,0,0,.25,1.647L2,15.881v3.786H5.852l6.67-6.556a5.862,5.862,0,0,0,4.937-.728,5.661,5.661,0,0,0,2.517-4.237A5.464,5.464,0,0,0,18.916,4.36,5.81,5.81,0,0,0,14.2,2Zm0,10.1a4.566,4.566,0,0,1-1.284-.189l-.738-.221-.546.536L9.588,14.228l-.905-.871-.905.89.886.871-1.021,1-.886-.871-.905.89.886.871L5.319,18.405H3.284v-2l6.291-6.2.546-.536-.186-.6a4.473,4.473,0,0,1,2.183-5.325,4.562,4.562,0,0,1,4.354.1,4.405,4.405,0,0,1,2.22,3.682,4.167,4.167,0,0,1-.7,2.524A4.513,4.513,0,0,1,14.2,12.1Z" transform="translate(0 0)" fill="#f7f7f7"/>
    <ellipse id="Elipse_1" data-name="Elipse 1" cx="1" cy="1.5" rx="1" ry="1.5" transform="translate(13 6.593)" fill="#f7f7f7"/>
  </g>
</svg>
