<svg xmlns="http://www.w3.org/2000/svg" width="15.781" height="18.208" viewBox="0 0 15.781 18.208">
  <g id="Grupo_1" data-name="Grupo 1" transform="translate(-5 -3)">
    <path id="Caminho_5" data-name="Caminho 5" d="M15.249,11.5A4.249,4.249,0,1,0,11,7.249,4.249,4.249,0,0,0,15.249,11.5Zm0-7.283a3.035,3.035,0,1,1-3.035,3.035A3.035,3.035,0,0,1,15.249,4.214Z" transform="translate(-2.358 0)" fill="#f7f7f7"/>
    <path id="Caminho_6" data-name="Caminho 6" d="M20.459,22.261a10.415,10.415,0,0,0-15.131,0A1.214,1.214,0,0,0,5,23.092v3.193A1.214,1.214,0,0,0,6.214,27.5H19.567a1.214,1.214,0,0,0,1.214-1.214V23.092A1.214,1.214,0,0,0,20.459,22.261Zm-.892,4.024H6.214v-3.2a9.207,9.207,0,0,1,13.353,0Z" transform="translate(0 -6.29)" fill="#f7f7f7"/>
  </g>
</svg>
